<svg width="187" height="31" viewBox="0 0 187 31" fill="none" xmlns="http://www.w3.org/2000/svg">
<path d="M180.592 23.2633H0.125V22.1764H180.661V23.2633H180.594H180.592ZM132.631 28.1521C132.631 28.6884 132.861 29.1097 133.321 29.4162C133.78 29.725 134.357 29.8782 135.052 29.8782C135.746 29.8782 136.34 29.7226 136.794 29.4114C137.249 29.1001 137.479 28.6572 137.479 28.085C137.479 27.7235 137.381 27.4075 137.185 27.1394C136.991 26.8688 136.703 26.6606 136.33 26.5121C135.954 26.3637 135.533 26.2895 135.066 26.2895C134.4 26.2895 133.831 26.4331 133.349 26.718C132.871 27.0029 132.631 27.4817 132.631 28.1497V28.1521ZM131.664 28.1425C131.664 27.4051 131.98 26.8281 132.612 26.4116C133.244 25.995 134.06 25.7867 135.061 25.7867C135.715 25.7867 136.306 25.8849 136.83 26.0812C137.355 26.2775 137.757 26.5504 138.032 26.9024C138.308 27.2519 138.444 27.6493 138.444 28.0946C138.444 28.5399 138.3 28.9493 138.011 29.3036C137.721 29.6604 137.309 29.9285 136.778 30.1105C136.244 30.2924 135.672 30.3858 135.056 30.3858C134.388 30.3858 133.792 30.2852 133.266 30.0817C132.739 29.8806 132.341 29.6029 132.071 29.2534C131.8 28.9038 131.664 28.5351 131.664 28.1449V28.1425ZM113.071 30.3068V25.8633H114.034L117.759 29.3515V25.8633H118.659V30.3068H117.697L113.972 26.8162V30.3068H113.071ZM96.0254 28.4825H98.4314L97.6893 27.2519C97.4642 26.8784 97.2966 26.572 97.1865 26.3302C97.0955 26.6151 96.9686 26.8976 96.8034 27.1801L96.0254 28.4825ZM93.9808 30.3068L96.7053 25.8633H97.7156L100.617 30.3068H99.5471L98.7187 28.9613H95.7524L94.9743 30.3068H93.976H93.9808ZM77.4974 30.3068V25.8633H78.4359V29.7825H81.9289V30.3068H77.4974ZM63.231 30.3068V25.8633H64.1695V30.3068H63.231ZM43.0751 30.3068V25.8633H44.4876L46.1659 29.0092C46.3215 29.3012 46.434 29.5215 46.5035 29.6675C46.5849 29.5071 46.7094 29.2677 46.8817 28.9541L48.5791 25.8633H49.8432V30.3068H48.9383V26.5887L46.8769 30.3068H46.0294L43.9801 26.5241V30.3068H43.0751ZM180.913 18.6044H173.652V18.14H174.26C175.035 18.14 175.531 17.958 175.751 17.5917C175.964 17.2302 176.074 16.5647 176.074 15.6094V4.66599C176.074 3.60061 175.938 2.9159 175.66 2.59988C175.383 2.28865 174.911 2.13543 174.26 2.13543H173.652V1.67097H180.913V2.13543H180.305C179.807 2.13543 179.376 2.26471 179.019 2.53045C178.658 2.7962 178.476 3.51203 178.476 4.66838V15.607C178.476 16.6006 178.548 17.2087 178.696 17.4289C178.837 17.642 179.065 17.8168 179.373 17.946C179.678 18.0753 179.986 18.14 180.302 18.14H180.91V18.6044H180.913ZM172.129 14.6326C170.494 17.539 168.162 18.9923 165.126 18.9923C162.608 18.9923 160.604 18.1591 159.119 16.4928C157.633 14.8337 156.891 12.7987 156.891 10.4022C156.891 7.80465 157.712 5.6356 159.364 3.8903C161.011 2.15218 163.058 1.28073 165.507 1.28073C166.735 1.28073 167.942 1.5776 169.124 2.17852C169.479 2.36047 169.732 2.45624 169.881 2.45624C170.398 2.45624 170.748 2.06121 170.92 1.28073H171.365L171.753 7.04333H171.365C170.391 3.80172 168.504 2.17852 165.708 2.17852C163.642 2.17852 162.136 2.95421 161.174 4.50319C160.218 6.05935 159.732 8.02969 159.732 10.419C159.732 12.8083 160.326 14.7858 161.509 16.0332C162.691 17.2733 164.209 17.8934 166.062 17.8934C167.314 17.8934 168.356 17.6157 169.182 17.053C170.015 16.4976 170.867 15.607 171.753 14.386L172.129 14.6326ZM155.071 14.6326C153.436 17.539 151.104 18.9923 148.068 18.9923C145.55 18.9923 143.546 18.1591 142.061 16.4928C140.575 14.8337 139.833 12.7987 139.833 10.4022C139.833 7.80465 140.654 5.6356 142.306 3.8903C143.953 2.15218 146 1.28073 148.449 1.28073C149.677 1.28073 150.884 1.5776 152.066 2.17852C152.421 2.36047 152.674 2.45624 152.823 2.45624C153.34 2.45624 153.69 2.06121 153.862 1.28073H154.307L154.695 7.04333H154.307C153.333 3.80172 151.446 2.17852 148.65 2.17852C146.584 2.17852 145.078 2.95421 144.116 4.50319C143.16 6.05935 142.674 8.02969 142.674 10.419C142.674 12.8083 143.268 14.7858 144.451 16.0332C145.633 17.2733 147.151 17.8934 149.004 17.8934C150.256 17.8934 151.298 17.6157 152.124 17.053C152.957 16.4976 153.809 15.607 154.695 14.386L155.071 14.6326ZM137.079 2.13303H136.447C135.808 2.13303 135.348 2.33414 135.071 2.73395C134.786 3.14095 134.645 3.81369 134.645 4.76175V11.628C134.645 13.0741 134.508 14.3214 134.23 15.3748C133.953 16.421 133.301 17.2925 132.267 17.9772C131.233 18.6619 129.859 19.0042 128.128 19.0042C126.397 19.0042 125.099 18.693 124.046 18.0873C122.992 17.4792 122.308 16.6915 121.98 15.7291C121.649 14.7667 121.489 13.2871 121.489 11.2785V4.66599C121.489 3.79932 121.372 3.16728 121.139 2.7531C120.914 2.33892 120.416 2.13303 119.66 2.13303H119.028V1.66858H126.339V2.13303H125.688C125.152 2.13303 124.719 2.28147 124.383 2.57833C124.048 2.86802 123.881 3.5671 123.881 4.66359V12.047C123.881 13.4475 124.017 14.5584 124.288 15.3939C124.558 16.2199 125.037 16.8543 125.71 17.2853C126.387 17.7186 127.24 17.9317 128.286 17.9317C129.332 17.9317 130.218 17.7186 131.089 17.2925C131.961 16.8663 132.588 16.2845 132.961 15.5424C133.335 14.8002 133.524 13.4619 133.524 11.5251V4.66599C133.524 3.54316 133.368 2.84408 133.052 2.55918C132.736 2.27428 132.296 2.13303 131.729 2.13303H131.096V1.66858H137.084V2.13303H137.079ZM117.567 14.0054L116.114 18.6044H103.002V18.14H103.634C104.35 18.14 104.828 17.958 105.075 17.5965C105.322 17.235 105.444 16.5694 105.444 15.595V4.66599C105.444 3.53597 105.283 2.83211 104.965 2.55439C104.649 2.2695 104.204 2.13543 103.634 2.13543H103.002V1.67097H110.675V2.13543C109.971 2.13543 109.408 2.20007 108.989 2.32935C108.57 2.46581 108.274 2.66452 108.099 2.93027C107.924 3.2008 107.84 3.87354 107.84 4.95088V15.595C107.84 16.4473 107.962 16.9836 108.209 17.1967C108.456 17.417 109.202 17.5271 110.45 17.5271H111.69C112.691 17.5271 113.478 17.4696 114.053 17.3451C114.627 17.2278 115.164 16.919 115.674 16.421C116.176 15.9302 116.667 15.0971 117.158 13.9216L117.565 14.0054H117.567ZM85.2854 10.3759C85.2854 4.91737 83.4444 2.1857 79.7766 2.1857C78.7687 2.1857 77.8637 2.45624 77.0761 2.98772C76.2812 3.524 75.642 4.3763 75.1512 5.55899C74.6604 6.74167 74.4138 8.22601 74.4138 10.0216C74.4138 12.4827 74.8855 14.4459 75.8288 15.9135C76.772 17.3739 78.0888 18.1041 79.7886 18.1041C81.577 18.1041 82.9416 17.4193 83.8777 16.0379C84.8138 14.6613 85.2854 12.7772 85.2854 10.3807V10.3759ZM88.1416 10.0336C88.1416 12.545 87.3539 14.6709 85.7786 16.4019C84.2033 18.1256 82.2138 18.9923 79.8173 18.9923C78.1893 18.9923 76.7625 18.6116 75.5415 17.8479C74.3133 17.0866 73.3461 16.0403 72.6278 14.7092C71.9168 13.3853 71.5553 11.8339 71.5553 10.0719C71.5553 7.51975 72.3765 5.42013 74.0236 3.76102C75.6636 2.1067 77.6602 1.28073 80.0184 1.28073C81.5698 1.28073 82.944 1.66139 84.1387 2.43708C85.3405 3.20559 86.3077 4.24463 87.0379 5.56377C87.7753 6.87574 88.1416 8.36726 88.1416 10.0336ZM68.8619 5.64038H68.3903C68.2155 3.69638 67.1813 2.72677 65.2971 2.72677H62.9006V15.6717C62.9006 16.7825 63.0562 17.4672 63.3651 17.7378C63.6691 18.0035 64.1144 18.1376 64.701 18.1376H65.2947V18.602H58.1053V18.1376H58.7134C59.2305 18.1376 59.6566 18.0083 59.999 17.7425C60.3342 17.4768 60.5089 16.7873 60.5089 15.6693V2.72677H58.4739C57.4086 2.72677 56.6065 2.92787 56.0655 3.3205C55.5292 3.71553 55.2132 4.48404 55.1222 5.64038H54.6506L54.8517 1.66858H68.6752L68.8619 5.64038ZM40.9132 2.85126V9.89709H41.6171C43.1086 9.89709 44.2985 9.57389 45.1771 8.92748C46.0629 8.28107 46.5011 7.37132 46.5011 6.18863C46.5011 5.00595 46.1324 4.06986 45.3974 3.48809C44.66 2.90633 43.8221 2.60946 42.8788 2.60946C42.0768 2.60946 41.4256 2.69325 40.9156 2.84887L40.9132 2.85126ZM52.9412 18.6044H48.4187L42.6825 10.6847C42.2635 10.7039 41.9212 10.7111 41.6554 10.7111C41.5142 10.7111 41.2676 10.7039 40.9132 10.6847V15.607C40.9132 16.7251 41.0736 17.4289 41.3849 17.7114C41.6937 17.9963 42.127 18.1376 42.6825 18.1376H43.348V18.602H36.0891V18.1376H36.7355C37.4322 18.1376 37.911 17.9556 38.1576 17.5941C38.409 17.2326 38.5311 16.567 38.5311 15.6046V4.66599C38.5311 3.54316 38.3755 2.84408 38.0595 2.55918C37.7435 2.27428 37.3029 2.13303 36.7355 2.13303H36.0891V1.66858H42.2587C43.7766 1.66858 44.9904 1.76434 45.9073 1.95826C46.8243 2.15937 47.6263 2.631 48.2966 3.38036C48.9742 4.12971 49.3117 5.01553 49.3117 6.02823C49.3117 8.30262 47.916 9.74147 45.1388 10.3615L48.639 15.2192C49.5104 16.421 50.2478 17.1895 50.8535 17.5247C51.4664 17.8599 52.1583 18.061 52.9388 18.1376V18.602L52.9412 18.6044ZM32.7494 14.3549L31.289 18.6044H18.234V18.14H18.8349C19.4286 18.14 19.8811 17.9915 20.1971 17.6875C20.5083 17.3834 20.6616 16.6987 20.6616 15.6262V4.6205C20.6616 3.47133 20.5131 2.77226 20.2091 2.51369C19.905 2.25513 19.4478 2.13303 18.8325 2.13303H18.2316V1.66858H31.2866L31.4733 5.37703H30.9825C30.7623 4.22787 30.4462 3.47851 30.0321 3.12898C29.6179 2.77465 28.8446 2.5927 27.7002 2.5927H23.0557V9.2842H26.7689C27.6404 9.2842 28.2868 9.14295 28.7129 8.85805C29.1391 8.57315 29.3857 7.89562 29.4359 6.82307H29.8956V12.7197H29.4359C29.333 11.5754 29.0481 10.8715 28.5836 10.601C28.1192 10.3352 27.5183 10.2011 26.7689 10.2011H23.0557V15.7818C23.0557 16.5838 23.1323 17.0985 23.3023 17.3332C23.4627 17.5654 23.8505 17.6755 24.4514 17.6755H27.3196C28.507 17.6755 29.4383 17.4888 30.1111 17.1129C30.7838 16.7322 31.4925 15.8153 32.249 14.3549H32.747H32.7494ZM5.14542 10.4405V17.3834C6.10785 17.6037 7.06309 17.7138 8.00158 17.7138C9.38298 17.7138 10.501 17.405 11.3605 16.7849C12.2128 16.1648 12.6389 15.2982 12.6389 14.1873C12.6389 12.9544 12.1745 12.0039 11.2384 11.3335C10.3071 10.6608 9.01668 10.3256 7.36236 10.3256C6.2898 10.3256 5.54763 10.3639 5.14782 10.4429L5.14542 10.4405ZM5.14542 2.78662V9.2842C5.76549 9.4063 6.55315 9.46615 7.5084 9.46615C10.5968 9.46615 12.1338 8.34332 12.1338 6.08808C12.1338 4.95807 11.6957 4.07943 10.8027 3.44739C9.91207 2.82014 8.77487 2.50412 7.39827 2.50412C6.56512 2.50412 5.80859 2.59509 5.14303 2.78901L5.14542 2.78662ZM0.302163 18.6044V18.14H0.934205C1.4633 18.14 1.89663 17.9987 2.23899 17.7138C2.58134 17.4241 2.74893 16.7203 2.74893 15.6094V4.66599C2.74893 3.54794 2.58853 2.85126 2.26532 2.55918C1.94212 2.27428 1.49682 2.13303 0.934205 2.13303H0.302163V1.66858H7.61374C12.3732 1.66858 14.7505 3.17446 14.7505 6.19103C14.7505 8.04406 13.7307 9.30335 11.6957 9.96891C14.2526 10.5052 15.5334 11.8363 15.5334 13.9671C15.5334 14.975 15.203 15.8728 14.5375 16.6532C13.8719 17.4289 13.0651 17.9508 12.129 18.2094C11.1857 18.4751 9.91446 18.6044 8.29845 18.6044H0.302163ZM183.111 2.60946H183.551C183.836 2.60946 184.016 2.59749 184.085 2.57355C184.154 2.5496 184.212 2.50891 184.253 2.44905C184.293 2.3892 184.312 2.31738 184.312 2.2288C184.312 2.12824 184.286 2.04924 184.233 1.98939C184.181 1.92953 184.107 1.88883 184.008 1.87447C183.961 1.86729 183.817 1.86489 183.575 1.86489H183.111V2.61185V2.60946ZM182.517 4.30927V1.36453H183.769C184.083 1.36453 184.312 1.39086 184.454 1.44353C184.597 1.4962 184.71 1.58957 184.796 1.72604C184.882 1.8625 184.925 2.01572 184.925 2.19049C184.925 2.41075 184.861 2.59509 184.731 2.73874C184.602 2.88238 184.408 2.97336 184.15 3.00927C184.279 3.08588 184.384 3.16728 184.468 3.25586C184.552 3.34684 184.664 3.50485 184.806 3.73468L185.165 4.30927H184.454L184.025 3.66765C183.872 3.43782 183.769 3.29417 183.712 3.23432C183.657 3.17446 183.597 3.13376 183.532 3.11222C183.47 3.09067 183.369 3.0787 183.233 3.0787H183.113V4.30687H182.519L182.517 4.30927ZM185.148 1.37889C184.775 1.00541 184.26 0.775579 183.69 0.775579C183.12 0.775579 182.606 1.00541 182.232 1.37889C181.859 1.75237 181.629 2.2671 181.629 2.8369C181.629 3.40669 181.859 3.92142 182.232 4.2949C182.606 4.66838 183.12 4.89821 183.69 4.89821C184.26 4.89821 184.775 4.66838 185.148 4.2949C185.522 3.92142 185.751 3.40669 185.751 2.8369C185.751 2.2671 185.522 1.75237 185.148 1.37889ZM183.69 0.4021C184.363 0.4021 184.971 0.675027 185.411 1.11554C185.852 1.55605 186.125 2.16416 186.125 2.8369C186.125 3.50964 185.852 4.11774 185.411 4.55825C184.971 4.99877 184.363 5.27169 183.69 5.27169C183.017 5.27169 182.409 4.99877 181.969 4.55825C181.528 4.11774 181.255 3.50964 181.255 2.8369C181.255 2.16416 181.528 1.55605 181.969 1.11554C182.409 0.675027 183.017 0.4021 183.69 0.4021V0.4021Z" fill="black"/>
</svg>
